<?xml version="1.0" encoding="utf-8"?>
<!-- Generator: Adobe Illustrator 19.0.0, SVG Export Plug-In . SVG Version: 6.00 Build 0)  -->
<svg version="1.1" id="Layer_1" xmlns="http://www.w3.org/2000/svg" xmlns:xlink="http://www.w3.org/1999/xlink" x="0px" y="0px"
	 viewBox="-285 408.9 24 24" style="enable-background:new -285 408.9 24 24;" xml:space="preserve">
<style type="text/css">
	.st5{fill:#c1c1c1;}
	.archived_st0{fill:#00918e}
</style>
<g>
	<path class="st5" d="M-273,409.6c6.2,0,11.3,5,11.3,11.3s-5,11.3-11.3,11.3s-11.3-5-11.3-11.3S-279.2,409.6-273,409.6
		 M-280.4,419.4h-0.8h-0.9l0.1,0.9l1.4,8.3l0.1,0.6h0.6h13.8h0.6l0.1-0.6l1.4-8.3l0.1-0.9h-0.9h-0.8l-0.3-0.9l-2.3-6.9l-0.2-0.5
		h-0.5h-8.3h-0.5l-0.2,0.5l-2.3,6.9L-280.4,419.4 M-273,408.9c-6.6,0-12,5.4-12,12s5.4,12,12,12s12-5.4,12-12
		S-266.4,408.9-273,408.9L-273,408.9z M-279.4,418.8l2.3-6.9h8.3l2.3,6.9h-1.5l-1.8-5.5h-6.3l-1.8,5.5H-279.4L-279.4,418.8z
		 M-275.5,414.6l0.2-0.7h4.6l0.2,0.7H-275.5L-275.5,414.6z M-276,416l0.2-0.7h5.5l0.2,0.7H-276L-276,416z M-276.4,417.4l0.2-0.7h6.4
		l0.2,0.7H-276.4L-276.4,417.4z M-276.9,418.8l0.2-0.7h7.3l0.2,0.7H-276.9L-276.9,418.8z M-279.9,428.4l-1.4-8.3h16.5l-1.4,8.3
		H-279.9L-279.9,428.4z"/>
</g>
<path class="archived_st0" d="M-279.4,423.8c1.6,0.3,3.7,1,5.3,2c1.9-2.5,5.2-4.9,8.9-6.8c-3.5,3.4-6.4,7.3-8.3,11.2
	C-275.1,428-276.8,425.9-279.4,423.8z"/>
</svg>
