<?xml version="1.0" encoding="utf-8"?>
<!-- Generator: Adobe Illustrator 19.0.0, SVG Export Plug-In . SVG Version: 6.00 Build 0)  -->
<svg version="1.1" id="Layer_1" xmlns="http://www.w3.org/2000/svg" xmlns:xlink="http://www.w3.org/1999/xlink" x="0px" y="0px"
	 viewBox="-285 408.9 24 24" style="enable-background:new -285 408.9 24 24;" xml:space="preserve">
<style type="text/css">
			.cancel_st0{fill:#ffdc34;}
	.cancel_st1{fill:#00918e;}
</style>
<path class="cancel_st1" d="M-273,410.8c-5.6,0-10.1,4.5-10.1,10.1c0,5.6,4.5,10.1,10.1,10.1s10.1-4.5,10.1-10.1
	C-262.9,415.3-267.4,410.8-273,410.8z M-269.1,425.9l-3.8-3.8l-3.8,3.9l-1.2-1.2l3.8-3.8l-3.8-3.8l1.2-1.2l3.8,3.8l3.8-3.8l1.2,1.2
	l-3.8,3.8l3.8,3.8L-269.1,425.9z"/>
<g>
	<path class="cancel_st0" d="M-273,409.6c6.2,0,11.3,5,11.3,11.3c0,6.2-5,11.3-11.3,11.3s-11.3-5-11.3-11.3
		C-284.3,414.7-279.2,409.6-273,409.6 M-273,408.9c-6.6,0-12,5.4-12,12c0,6.6,5.4,12,12,12s12-5.4,12-12
		C-261,414.3-266.4,408.9-273,408.9L-273,408.9z"/>
</g>
</svg>
