<?xml version="1.0" encoding="utf-8"?>
<!-- Generator: Adobe Illustrator 19.0.0, SVG Export Plug-In . SVG Version: 6.00 Build 0)  -->
<svg version="1.1" id="Layer_1" xmlns="http://www.w3.org/2000/svg" xmlns:xlink="http://www.w3.org/1999/xlink" x="0px" y="0px"
	 viewBox="-285 408.9 24 24" style="enable-background:new -285 408.9 24 24;" xml:space="preserve">
<style type="text/css">
		.list_st0{fill:#ffdc34;}
	.list_st1{fill:#00918e;}
</style>
<path class="list_st1" d="M-278.4,427.7h-2.7V425h2.7V427.7z M-278.4,419.5h-2.7v2.7h2.7V419.5z M-278.4,414.1h-2.7v2.7h2.7V414.1z
	 M-276.4,414.1v2.7h11.6v-2.7H-276.4z M-276.4,422.3h11.6v-2.7h-11.6V422.3z M-276.4,427.7h11.6V425h-11.6V427.7z"/>
<g>
	<path class="list_st0" d="M-273,410.4c5.8,0,10.5,4.7,10.5,10.5c0,5.8-4.7,10.5-10.5,10.5s-10.5-4.7-10.5-10.5
		C-283.5,415.1-278.8,410.4-273,410.4 M-273,408.9c-6.6,0-12,5.4-12,12c0,6.6,5.4,12,12,12c6.6,0,12-5.4,12-12
		C-261,414.3-266.4,408.9-273,408.9L-273,408.9z"/>
</g>
</svg>
