<?xml version="1.0" encoding="utf-8"?>
<!-- Generator: Adobe Illustrator 19.0.0, SVG Export Plug-In . SVG Version: 6.00 Build 0)  -->
<svg version="1.1" id="Layer_1" xmlns="http://www.w3.org/2000/svg" xmlns:xlink="http://www.w3.org/1999/xlink" x="0px" y="0px"
	 viewBox="-12 14 24 24" style="enable-background:new -12 14 24 24;" xml:space="preserve">
<style type="text/css">
		.search_st0{fill:#ffdc34;}
	.search_st1{fill:#00918e;}
</style>
<path class="search_st1" d="M0,16.3c-5.3,0-9.7,4.3-9.7,9.7s4.3,9.7,9.7,9.7s9.7-4.3,9.7-9.7S5.3,16.3,0,16.3z M-1,30.3l-3.6-3.5l1.5-1.5
	l2.1,2l4.5-4.7L5,24.1L-1,30.3z"/>
<g>
	<path class="search_st0" d="M0,15c6.1,0,11,4.9,11,11S6.1,37,0,37s-11-4.9-11-11S-6.1,15,0,15 M0,14c-6.6,0-12,5.4-12,12s5.4,12,12,12
		s12-5.4,12-12S6.6,14,0,14L0,14z"/>
</g>
</svg>
