<?xml version="1.0" encoding="utf-8"?>
<!-- Generator: Adobe Illustrator 19.0.0, SVG Export Plug-In . SVG Version: 6.00 Build 0)  -->
<svg version="1.1" id="Layer_1" xmlns="http://www.w3.org/2000/svg" xmlns:xlink="http://www.w3.org/1999/xlink" x="0px" y="0px"
	 viewBox="-285 408.9 24 24" style="enable-background:new -285 408.9 24 24;" xml:space="preserve">
<style type="text/css">
			.pencil_st0{fill:#ffdc34;}
	.pencil_st1{fill:#00918e;}
</style>
<path class="pencil_st1" d="M-271.6,415.8l-8.2,8.2l-0.9,4.6l4.6-0.9l8.2-8.2C-267.9,419.5-271.6,415.8-271.6,415.8z M-278.4,425.5
	l-0.6-0.6l7.3-7.2l0.6,0.6L-278.4,425.5z M-277.1,426.8l-0.6-0.6l7.3-7.2l0.6,0.6C-269.8,419.6-277.1,426.8-277.1,426.8z
	 M-265.2,416.8l-1.8,1.8l-3.7-3.7l1.8-1.8L-265.2,416.8z"/>
<g>
	<path class="pencil_st0" d="M-273,409.6c6.2,0,11.3,5,11.3,11.3s-5,11.3-11.3,11.3s-11.3-5-11.3-11.3S-279.2,409.6-273,409.6 M-273,408.9
		c-6.6,0-12,5.4-12,12s5.4,12,12,12s12-5.4,12-12S-266.4,408.9-273,408.9L-273,408.9z"/>
</g>
</svg>
