<?xml version="1.0" encoding="utf-8"?>
<!-- Generator: Adobe Illustrator 19.0.0, SVG Export Plug-In . SVG Version: 6.00 Build 0)  -->
<svg version="1.1" id="Layer_1" xmlns="http://www.w3.org/2000/svg" xmlns:xlink="http://www.w3.org/1999/xlink" x="0px" y="0px"
	 viewBox="-285 408.9 24 24" style="enable-background:new -285 408.9 24 24;" xml:space="preserve">
<style type="text/css">
    .plus_st1{fill:#ffdc34;}
	.plus_st0{fill:#00918e;}
</style>
<path class="plus_st0" d="M-273,411.4c-5.2,0-9.5,4.3-9.5,9.5s4.3,9.5,9.5,9.5s9.5-4.3,9.5-9.5S-267.8,411.4-273,411.4z M-268.3,421.7h-4
	v4h-1.6v-4h-4v-1.6h4v-4h1.6v4h4V421.7z"/>
<g>
	<path class="plus_st1" d="M-273,409.9c6.1,0,11,4.9,11,11s-4.9,11-11,11s-11-4.9-11-11S-279.1,409.9-273,409.9 M-273,408.9
		c-6.6,0-12,5.4-12,12s5.4,12,12,12s12-5.4,12-12S-266.4,408.9-273,408.9L-273,408.9z"/>
</g>
</svg>
