<?xml version="1.0" encoding="utf-8"?>
<!-- Generator: Adobe Illustrator 19.0.0, SVG Export Plug-In . SVG Version: 6.00 Build 0)  -->
<svg version="1.1" id="Layer_1" xmlns="http://www.w3.org/2000/svg" xmlns:xlink="http://www.w3.org/1999/xlink" x="0px" y="0px"
	 viewBox="-285 408.9 24 24" style="enable-background:new -285 408.9 24 24;" xml:space="preserve">
<style type="text/css">
	.search_st0{fill:#ffdc34;}
	.search_st1{fill:#00918e;}
</style>
<path class="search_st1" d="M-264.7,427.1l-4.5-4.5c0.7-1,1-2.2,1-3.5c0-3.7-3-6.6-6.6-6.6s-6.6,3-6.6,6.6c0,3.7,3,6.6,6.6,6.6
	c1.2,0,2.4-0.3,3.4-0.9l4.5,4.5C-266.9,429.3-264.7,427.1-264.7,427.1z M-278.8,419.2c0-2.2,1.8-4,4-4c2.2,0,4,1.8,4,4
	c0,2.2-1.8,4-4,4C-277,423.2-278.8,421.4-278.8,419.2z"/>
<g>
	<path class="search_st0" d="M-273,409.9c6.1,0,11,4.9,11,11c0,6.1-4.9,11-11,11s-11-4.9-11-11C-284,414.8-279.1,409.9-273,409.9
		 M-273,408.9c-6.6,0-12,5.4-12,12c0,6.6,5.4,12,12,12s12-5.4,12-12C-261,414.3-266.4,408.9-273,408.9L-273,408.9z"/>
</g>
</svg>
