<?xml version="1.0" encoding="utf-8"?>
<!-- Generator: Adobe Illustrator 19.0.0, SVG Export Plug-In . SVG Version: 6.00 Build 0)  -->
<svg version="1.1" id="Layer_1" xmlns="http://www.w3.org/2000/svg" xmlns:xlink="http://www.w3.org/1999/xlink" x="0px" y="0px"
	 viewBox="-285 408.9 24 24" style="enable-background:new -285 408.9 24 24;" xml:space="preserve">
<style type="text/css">
	.signout1{fill:#00918E;}
	.signout0{fill:#FFDC34;}
</style>
<path class="signout0" d="M-271.5,426.2L-271.5,426.2c-0.9,0.5-1.9,0.8-3.1,0.8c-3.4,0-6.1-2.7-6.1-6.1c0-3.4,2.7-6.1,6.1-6.1
	c1.1,0,2.2,0.3,3.1,0.8v-1.7c-0.9-0.4-2-0.6-3.1-0.6c-4.2,0-7.6,3.4-7.6,7.6c0,4.2,3.4,7.6,7.6,7.6c1.1,0,2.1-0.2,3.1-0.6V426.2z
	 M-268.4,418.9l2.3,2l-2.3,2v-1.2h-6.1v-1.5h6.1V418.9z M-269.9,415.5v3.1h-6.1v4.6h6.1v3.1l6.1-5.3L-269.9,415.5z"/>
<g>
	<path class="signout1" d="M-273,409.9c6.1,0,11,4.9,11,11s-4.9,11-11,11s-11-4.9-11-11S-279.1,409.9-273,409.9 M-273,408.9
		c-6.6,0-12,5.4-12,12c0,6.6,5.4,12,12,12c6.6,0,12-5.4,12-12C-261,414.3-266.4,408.9-273,408.9L-273,408.9z"/>
</g>
</svg>
