<?xml version="1.0" encoding="utf-8"?>
<!-- Generator: Adobe Illustrator 19.0.0, SVG Export Plug-In . SVG Version: 6.00 Build 0)  -->
<svg version="1.1" id="Layer_1" xmlns="http://www.w3.org/2000/svg" xmlns:xlink="http://www.w3.org/1999/xlink" x="0px" y="0px"
	 viewBox="-285 408.9 24 24" style="enable-background:new -285 408.9 24 24;" xml:space="preserve">
<style type="text/css">
	.st0{fill:#00918E;}
	.st1{fill:#FFDC34;}
</style>
<path class="st0" d="M-274.6,418.8l2.4,2.1l-2.4,2.1v-1.3h-6.4v-1.6h6.4V418.8z M-276.2,415.3v3.2h-6.4v4.8h6.4v3.2l6.4-5.6
	L-276.2,415.3z M-271.4,412.9c-1.4,0-2.8,0.4-3.9,1l0.2,0.2l1.1,1c0.8-0.4,1.7-0.6,2.6-0.6c3.5,0,6.4,2.9,6.4,6.4
	c0,3.5-2.9,6.4-6.4,6.4c-0.9,0-1.8-0.2-2.6-0.6l-1.1,1l-0.2,0.2c1.2,0.7,2.5,1,3.9,1c4.4,0,8-3.6,8-8
	C-263.5,416.5-267,412.9-271.4,412.9z"/>
<g>
	<path class="st1" d="M-273,409.9c6.1,0,11,4.9,11,11s-4.9,11-11,11s-11-4.9-11-11S-279.1,409.9-273,409.9 M-273,408.9
		c-6.6,0-12,5.4-12,12s5.4,12,12,12s12-5.4,12-12S-266.4,408.9-273,408.9L-273,408.9z"/>
</g>
</svg>
