<?xml version="1.0" encoding="utf-8"?>
<!-- Generator: Adobe Illustrator 19.0.0, SVG Export Plug-In . SVG Version: 6.00 Build 0)  -->
<svg version="1.1" id="Layer_1" xmlns="http://www.w3.org/2000/svg" xmlns:xlink="http://www.w3.org/1999/xlink" x="0px" y="0px"
	 viewBox="-285 408.9 24 24" style="enable-background:new -285 408.9 24 24;" xml:space="preserve">
<style type="text/css">
		.trash_st0{fill:#ffdc34;}
	.trash_st1{fill:#00918e;}
</style>
<path class="trash_st1" d="M-279.2,416.7v12.5h12.5v-12.5H-279.2z M-275.8,426.4c0,0.4-0.3,0.7-0.7,0.7c-0.4,0-0.7-0.3-0.7-0.7v-6.9
	c0-0.4,0.3-0.7,0.7-0.7c0.4,0,0.7,0.3,0.7,0.7V426.4z M-272.3,426.4c0,0.4-0.3,0.7-0.7,0.7s-0.7-0.3-0.7-0.7v-6.9
	c0-0.4,0.3-0.7,0.7-0.7s0.7,0.3,0.7,0.7V426.4z M-268.8,426.4c0,0.4-0.3,0.7-0.7,0.7c-0.4,0-0.7-0.3-0.7-0.7v-6.9
	c0-0.4,0.3-0.7,0.7-0.7c0.4,0,0.7,0.3,0.7,0.7V426.4z M-266.1,414v1.4h-13.9V414h4c0.6,0,1.1-0.8,1.1-1.4h3.7c0,0.6,0.5,1.4,1.1,1.4
	H-266.1z"/>
<g>
	<path class="trash_st0" d="M-273,409.6c6.2,0,11.3,5,11.3,11.3s-5,11.3-11.3,11.3s-11.3-5-11.3-11.3S-279.2,409.6-273,409.6 M-273,408.9
		c-6.6,0-12,5.4-12,12s5.4,12,12,12s12-5.4,12-12S-266.4,408.9-273,408.9L-273,408.9z"/>
</g>
</svg>
